<?xml version="1.0" encoding="UTF-8"?>
<svg width="181px" height="40px" viewBox="0 0 181 40" version="1.1" xmlns="http://www.w3.org/2000/svg" xmlns:xlink="http://www.w3.org/1999/xlink">
    <!-- Generator: Sketch 48.2 (47327) - http://www.bohemiancoding.com/sketch -->
    <title>zylo-logo-vector-print</title>
    <desc>Created with Sketch.</desc>
    <defs></defs>
    <g id="Style-Guide" stroke="none" stroke-width="1" fill="none" fill-rule="evenodd">
        <g id="zylo-logo-vector-print">
            <path d="M29.252,21.084 L28.234,30.455 L0,30.455 L0,29.274 L19.445,4.473 L12.85,4.473 C11.507,4.473 10.538,4.509 9.944,4.581 C9.351,4.653 8.792,4.8 8.27,5.022 C7.662,5.231 6.991,5.785 6.255,6.68 C5.52,7.577 4.537,9.071 3.306,11.164 L1.59,11.164 L2.523,2.692 L28.68,2.692 L28.68,3.874 L9.235,28.675 L16.805,28.675 C19.179,28.675 20.795,28.586 21.65,28.41 C22.505,28.233 23.131,27.916 23.528,27.458 C24.333,26.556 25.078,25.565 25.764,24.486 C26.45,23.408 27.083,22.273 27.662,21.084 L29.252,21.084" id="Fill-1" fill="#E46C2B"></path>
            <g id="Group-5" transform="translate(28.000000, 0.000000)" fill="#E46C2B">
                <path d="M26.751,12.475 C26.115,12.566 25.497,12.788 24.896,13.14 C24.296,13.493 23.797,14.04 23.402,14.784 C22.187,17.157 20.936,19.684 19.651,22.365 C18.364,25.045 16.938,27.944 15.369,31.061 C14.493,32.81 13.644,34.204 12.825,35.249 C12.005,36.292 11.235,37.095 10.515,37.655 C9.836,38.176 9.165,38.555 8.501,38.79 C7.837,39.024 7.166,39.143 6.487,39.143 C5.144,39.143 4.06,38.796 3.233,38.105 C2.406,37.413 1.993,36.637 1.993,35.776 C1.993,35.411 2.039,35.071 2.132,34.759 C2.223,34.446 2.416,34.12 2.714,33.78 C2.94,33.494 3.288,33.249 3.762,33.047 C4.236,32.845 4.768,32.743 5.361,32.743 C6.152,32.743 6.907,32.998 7.629,33.508 C8.349,34.015 9.097,34.721 9.873,35.62 C10.34,35.188 10.915,34.545 11.601,33.688 C12.285,32.83 12.79,31.952 13.114,31.05 C11.434,27.791 9.945,24.966 8.646,22.574 C7.347,20.183 5.892,17.514 4.283,14.568 C3.928,13.942 3.456,13.456 2.862,13.111 C2.269,12.765 1.64,12.553 0.976,12.475 L0.976,11.047 L13.948,11.047 L13.948,12.475 C13.469,12.488 12.916,12.586 12.288,12.769 C11.661,12.951 11.347,13.187 11.347,13.473 C11.347,13.577 11.369,13.691 11.41,13.815 C11.453,13.939 11.531,14.118 11.644,14.352 C12.125,15.263 12.805,16.528 13.687,18.147 C14.569,19.767 15.596,21.663 16.768,23.835 C17.643,21.988 18.386,20.398 19,19.065 C19.614,17.732 20.21,16.422 20.788,15.134 C20.93,14.809 21.011,14.552 21.032,14.363 C21.054,14.174 21.064,14.046 21.064,13.981 C21.064,13.747 20.941,13.541 20.694,13.365 C20.446,13.189 20.154,13.036 19.816,12.905 C19.464,12.775 19.126,12.677 18.801,12.612 C18.476,12.547 18.208,12.501 17.997,12.475 L17.997,11.047 L26.751,11.047 L26.751,12.475" id="Fill-2"></path>
                <path d="M40.148,30.455 L26.794,30.455 L26.794,29.026 C27.164,29.001 27.522,28.968 27.872,28.929 C28.22,28.89 28.53,28.824 28.8,28.733 C29.255,28.576 29.564,28.352 29.728,28.058 C29.892,27.765 29.973,27.377 29.973,26.894 L29.973,5.217 C29.973,4.721 29.864,4.261 29.646,3.837 C29.425,3.414 29.132,3.091 28.765,2.869 C28.483,2.7 28.055,2.536 27.483,2.379 C26.91,2.223 26.405,2.131 25.967,2.106 L25.967,0.678 L36.65,0.168 L36.968,0.482 L36.968,26.64 C36.968,27.123 37.061,27.514 37.245,27.813 C37.43,28.114 37.729,28.349 38.143,28.518 C38.426,28.636 38.725,28.739 39.038,28.831 C39.351,28.923 39.721,28.987 40.148,29.026 L40.148,30.455" id="Fill-4"></path>
            </g>
            <path d="M113.204,29.614 C112.285,29.966 111.416,30.263 110.596,30.504 C109.777,30.745 108.774,30.866 107.586,30.866 C105.835,30.866 104.602,30.458 103.887,29.643 C103.175,28.828 102.818,27.677 102.818,26.19 L102.818,13.121 L99.045,13.121 L99.045,11.242 L102.902,11.242 L102.902,5.236 L106.76,5.236 L106.76,11.242 L112.759,11.242 L112.759,13.121 L106.803,13.121 L106.803,23.901 C106.803,24.71 106.834,25.385 106.899,25.926 C106.962,26.467 107.112,26.939 107.353,27.344 C107.579,27.723 107.918,28.01 108.371,28.205 C108.822,28.4 109.431,28.498 110.194,28.498 C110.547,28.498 111.067,28.469 111.751,28.41 C112.438,28.352 112.921,28.277 113.204,28.185 L113.204,29.614" id="Fill-6" fill="#FFFFFF"></path>
            <path d="M129.164,18.56 C129.164,17.832 129.098,17.051 128.964,16.219 C128.829,15.387 128.614,14.691 128.318,14.132 C127.991,13.534 127.547,13.046 126.983,12.669 C126.416,12.292 125.689,12.104 124.799,12.104 C123.315,12.104 122.082,12.672 121.1,13.81 C120.117,14.948 119.584,16.531 119.499,18.56 L129.164,18.56 Z M133.849,25.916 C132.973,27.455 131.801,28.682 130.331,29.594 C128.861,30.507 127.173,30.964 125.265,30.964 C123.583,30.964 122.11,30.689 120.846,30.142 C119.58,29.594 118.538,28.851 117.72,27.911 C116.9,26.972 116.288,25.877 115.886,24.625 C115.483,23.373 115.28,22.049 115.28,20.652 C115.28,19.401 115.496,18.172 115.928,16.965 C116.36,15.759 116.99,14.673 117.824,13.707 C118.63,12.781 119.63,12.035 120.823,11.467 C122.018,10.9 123.358,10.616 124.841,10.616 C126.367,10.616 127.674,10.838 128.762,11.282 C129.851,11.725 130.733,12.331 131.411,13.101 C132.063,13.832 132.546,14.693 132.863,15.684 C133.182,16.675 133.341,17.751 133.341,18.912 L133.341,20.203 L119.499,20.203 C119.499,21.471 119.63,22.622 119.892,23.654 C120.152,24.686 120.566,25.596 121.132,26.38 C121.683,27.138 122.402,27.736 123.294,28.174 C124.184,28.612 125.244,28.831 126.473,28.831 C127.731,28.831 128.815,28.559 129.727,28.015 C130.639,27.471 131.518,26.49 132.366,25.074 L133.849,25.916 Z" id="Fill-7" fill="#FFFFFF"></path>
            <g id="Group-11" transform="translate(136.000000, 0.000000)" fill="#FFFFFF">
                <path d="M9.932,30.964 C6.908,30.964 4.54,30.037 2.831,28.185 C1.121,26.333 0.266,23.849 0.266,20.731 C0.266,19.375 0.496,18.106 0.955,16.926 C1.413,15.746 2.082,14.673 2.958,13.707 C3.792,12.781 4.838,12.035 6.095,11.467 C7.353,10.9 8.725,10.616 10.207,10.616 C12.257,10.616 13.924,11.07 15.21,11.976 C16.495,12.882 17.139,14.118 17.139,15.684 C17.139,16.335 16.969,16.913 16.63,17.415 C16.29,17.917 15.733,18.168 14.955,18.168 C14.121,18.168 13.476,17.973 13.017,17.583 C12.556,17.193 12.327,16.758 12.327,16.277 C12.327,15.691 12.411,15.09 12.581,14.473 C12.751,13.855 12.85,13.403 12.878,13.117 C12.624,12.714 12.248,12.445 11.747,12.308 C11.246,12.172 10.707,12.104 10.129,12.104 C9.453,12.104 8.809,12.237 8.194,12.504 C7.582,12.771 6.986,13.265 6.408,13.981 C5.887,14.634 5.464,15.514 5.141,16.623 C4.816,17.731 4.653,19.056 4.653,20.595 C4.653,23.021 5.236,24.999 6.401,26.532 C7.564,28.064 9.092,28.831 10.982,28.831 C12.351,28.831 13.497,28.522 14.421,27.907 C15.345,27.29 16.202,26.365 16.993,25.133 L18.347,25.955 C17.415,27.494 16.186,28.714 14.658,29.614 C13.133,30.514 11.558,30.964 9.932,30.964" id="Fill-8"></path>
                <path d="M42.725,30.455 L32.444,30.455 L32.444,29.164 C32.769,29.138 33.128,29.111 33.526,29.086 C33.92,29.06 34.245,29.007 34.499,28.929 C34.895,28.811 35.188,28.606 35.38,28.312 C35.57,28.019 35.666,27.638 35.666,27.168 L35.666,17.249 C35.666,15.879 35.315,14.823 34.614,14.079 C33.911,13.336 33.059,12.964 32.053,12.964 C31.317,12.964 30.633,13.072 30.003,13.287 C29.372,13.502 28.81,13.766 28.314,14.079 C27.833,14.406 27.464,14.732 27.209,15.057 C26.953,15.384 26.756,15.658 26.614,15.879 L26.614,26.972 C26.614,27.416 26.71,27.781 26.901,28.068 C27.091,28.355 27.384,28.576 27.779,28.733 C28.091,28.863 28.412,28.962 28.744,29.026 C29.076,29.093 29.442,29.138 29.836,29.164 L29.836,30.455 L19.599,30.455 L19.599,29.164 C19.92,29.138 20.258,29.108 20.61,29.075 C20.959,29.043 21.254,28.994 21.493,28.929 C21.885,28.811 22.181,28.605 22.377,28.312 C22.573,28.019 22.672,27.637 22.672,27.166 L22.672,4.69 C22.672,4.247 22.563,3.803 22.343,3.359 C22.124,2.915 21.838,2.583 21.485,2.36 C21.231,2.19 20.781,2.07 20.139,1.998 C19.495,1.926 18.976,1.878 18.58,1.851 L18.58,0.599 L26.318,0.168 L26.614,0.462 L26.614,13.922 L26.699,13.922 C27.166,13.493 27.591,13.111 27.973,12.778 C28.356,12.446 28.857,12.097 29.481,11.731 C30.018,11.419 30.651,11.158 31.38,10.949 C32.111,10.74 32.928,10.636 33.832,10.636 C35.701,10.636 37.139,11.181 38.144,12.269 C39.148,13.359 39.65,14.927 39.65,16.975 L39.65,27.011 C39.65,27.468 39.739,27.837 39.917,28.117 C40.095,28.397 40.391,28.616 40.804,28.772 C41.13,28.89 41.425,28.978 41.689,29.036 C41.951,29.096 42.297,29.138 42.725,29.164 L42.725,30.455" id="Fill-10"></path>
            </g>
            <path d="M93.196,23.949 C93.108,23.887 93.018,23.824 92.929,23.765 C92.592,23.537 92.123,23.647 91.95,24.016 C90.743,26.581 88.13,28.123 85.079,28.004 C82.291,27.893 79.66,26.408 78.016,24.008 C77.751,23.65 77.521,23.288 77.333,22.928 C77.179,22.633 77.291,22.269 77.566,22.082 L78.11,21.713 C78.584,21.392 78.466,20.678 77.92,20.508 C75.919,19.886 73.467,18.521 72.253,16.747 C71.951,16.305 71.275,16.364 71.073,16.86 C69.865,19.823 69.674,23.451 70.789,26.742 C70.967,27.269 71.68,27.359 71.992,26.899 L72.024,26.852 C72.291,26.456 72.86,26.466 73.141,26.852 C76.05,30.839 80.624,32.775 85.211,32.05 C89.173,31.425 92.404,28.514 93.463,24.678 C93.539,24.405 93.427,24.112 93.196,23.949" id="Fill-12" fill="#E46C2B"></path>
            <path d="M73.122,16.473 C73.209,16.534 73.3,16.597 73.389,16.657 C73.726,16.884 74.195,16.773 74.367,16.406 C75.574,13.84 78.188,12.298 81.239,12.417 C84.026,12.529 86.657,14.013 88.301,16.414 C88.567,16.771 88.796,17.133 88.984,17.494 C89.138,17.788 89.026,18.153 88.752,18.339 L88.207,18.708 C87.733,19.029 87.852,19.744 88.398,19.914 C90.399,20.535 92.85,21.9 94.065,23.675 C94.367,24.116 95.042,24.057 95.244,23.561 C96.452,20.599 96.645,16.97 95.529,13.679 C95.35,13.152 94.638,13.061 94.325,13.522 L94.294,13.57 C94.026,13.965 93.457,13.956 93.176,13.57 C90.268,9.583 85.693,7.646 81.107,8.372 C77.144,8.997 73.914,11.908 72.854,15.744 C72.779,16.016 72.891,16.309 73.122,16.473" id="Fill-13" fill="#E46C2B"></path>
            <polyline id="Fill-14" fill="#FFFFFF" points="173.441 0.867 171.926 0.867 171.926 0.319 175.613 0.319 175.613 0.867 174.092 0.867 174.092 5.301 173.441 5.301 173.441 0.867"></polyline>
            <path d="M180.001,3.114 C179.964,2.419 179.919,1.583 179.927,0.963 L179.904,0.963 C179.735,1.546 179.528,2.168 179.277,2.855 L178.397,5.272 L177.909,5.272 L177.104,2.899 C176.867,2.197 176.668,1.554 176.527,0.963 L176.513,0.963 C176.498,1.583 176.461,2.419 176.417,3.166 L176.283,5.301 L175.67,5.301 L176.018,0.319 L176.838,0.319 L177.688,2.729 C177.895,3.343 178.064,3.89 178.19,4.407 L178.213,4.407 C178.337,3.905 178.515,3.357 178.737,2.729 L179.623,0.319 L180.444,0.319 L180.755,5.301 L180.125,5.301 L180.001,3.114" id="Fill-15" fill="#FFFFFF"></path>
        </g>
    </g>
</svg>